<?xml version="1.0" encoding="UTF-8" standalone="no" ?>
<!DOCTYPE svg PUBLIC "-//W3C//DTD SVG 1.1//EN" "http://www.w3.org/Graphics/SVG/1.1/DTD/svg11.dtd">
<svg xmlns="http://www.w3.org/2000/svg" xmlns:xlink="http://www.w3.org/1999/xlink" version="1.1" width="350" height="350" viewBox="0 0 350 350" xml:space="preserve">
<desc>Created with Fabric.js 1.7.22</desc>
<defs>
</defs>
<g id="icon" style="stroke: none; stroke-width: 1; stroke-dasharray: none; stroke-linecap: butt; stroke-linejoin: miter; stroke-miterlimit: 10; fill: none; fill-rule: nonzero; opacity: 1;" transform="translate(-1.9444444444444287 -1.9444444444444287) scale(3.89 3.89)" >
	<path d="M 65.355 25.291 c 0.378 -1.911 -0.019 -3.792 -1.122 -5.296 c -1.101 -1.504 -2.774 -2.452 -4.71 -2.668 c -1.903 -0.214 -3.829 0.312 -5.421 1.478 L 21.684 42.544 l 0.16 -8.403 c 0.035 -1.878 -0.678 -3.615 -2.01 -4.893 c -1.38 -1.323 -3.227 -1.982 -5.225 -1.866 c -3.978 0.241 -7.274 3.597 -7.348 7.482 L 6.683 65.296 c -0.123 5.438 1.459 10.559 4.573 14.811 c 4.012 5.478 10.125 8.932 17.213 9.722 C 29.493 89.944 30.518 90 31.542 90 c 6.031 0 11.987 -1.964 17.044 -5.669 l 13.568 -9.936 c 1.591 -1.165 2.673 -2.842 3.045 -4.722 c 0.379 -1.911 -0.019 -3.792 -1.122 -5.296 c -1.147 -1.566 -2.881 -2.473 -4.745 -2.672 l 0.354 -0.259 c 1.591 -1.165 2.673 -2.842 3.045 -4.721 c 0.379 -1.911 -0.019 -3.792 -1.122 -5.296 c -1.102 -1.505 -2.775 -2.452 -4.71 -2.668 c -0.349 -0.039 -0.698 -0.045 -1.046 -0.035 c 0.444 -0.742 0.766 -1.55 0.935 -2.405 c 0.379 -1.911 -0.019 -3.792 -1.122 -5.296 c -1.101 -1.504 -2.774 -2.452 -4.71 -2.668 c -0.012 -0.001 -0.024 -0.001 -0.037 -0.002 l 11.389 -8.341 C 63.901 28.847 64.983 27.17 65.355 25.291 z" style="stroke: none; stroke-width: 1; stroke-dasharray: none; stroke-linecap: butt; stroke-linejoin: miter; stroke-miterlimit: 10; fill: rgb(0,0,0); fill-rule: nonzero; opacity: 1;" transform=" matrix(1 0 0 1 0 0) " stroke-linecap="round" />
	<path d="M 70.508 25.632 c -0.867 0 -1.571 -0.703 -1.571 -1.571 c 0 -5.334 -4.34 -9.674 -9.674 -9.674 c -0.867 0 -1.571 -0.703 -1.571 -1.571 c 0 -0.867 0.703 -1.571 1.571 -1.571 c 5.334 0 9.674 -4.34 9.674 -9.674 C 68.937 0.703 69.641 0 70.508 0 c 0.867 0 1.571 0.703 1.571 1.571 c 0 5.334 4.34 9.674 9.674 9.674 c 0.867 0 1.571 0.703 1.571 1.571 c 0 0.867 -0.703 1.571 -1.571 1.571 c -5.334 0 -9.674 4.34 -9.674 9.674 C 72.079 24.929 71.375 25.632 70.508 25.632 z" style="stroke: none; stroke-width: 1; stroke-dasharray: none; stroke-linecap: butt; stroke-linejoin: miter; stroke-miterlimit: 10; fill: rgb(0,0,0); fill-rule: nonzero; opacity: 1;" transform=" matrix(1 0 0 1 0 0) " stroke-linecap="round" />
	<path d="M 79.955 24.061 c -0.176 0 -0.319 -0.143 -0.319 -0.319 c 0 -1.082 -0.88 -1.962 -1.962 -1.962 c -0.176 0 -0.319 -0.143 -0.319 -0.319 s 0.143 -0.319 0.319 -0.319 c 1.082 0 1.962 -0.88 1.962 -1.962 c 0 -0.176 0.143 -0.319 0.319 -0.319 s 0.319 0.143 0.319 0.319 c 0 1.082 0.88 1.962 1.962 1.962 c 0.176 0 0.319 0.143 0.319 0.319 s -0.143 0.319 -0.319 0.319 c -1.082 0 -1.962 0.88 -1.962 1.962 C 80.274 23.919 80.131 24.061 79.955 24.061 z" style="stroke: none; stroke-width: 1; stroke-dasharray: none; stroke-linecap: butt; stroke-linejoin: miter; stroke-miterlimit: 10; fill: rgb(0,0,0); fill-rule: nonzero; opacity: 1;" transform=" matrix(1 0 0 1 0 0) " stroke-linecap="round" />
	<path d="M 56.721 8.713 c -0.176 0 -0.319 -0.143 -0.319 -0.319 c 0 -1.082 -0.88 -1.962 -1.962 -1.962 c -0.176 0 -0.319 -0.143 -0.319 -0.319 s 0.143 -0.319 0.319 -0.319 c 1.082 0 1.962 -0.88 1.962 -1.962 c 0 -0.176 0.143 -0.319 0.319 -0.319 c 0.176 0 0.319 0.143 0.319 0.319 c 0 1.082 0.88 1.962 1.962 1.962 c 0.176 0 0.319 0.143 0.319 0.319 s -0.143 0.319 -0.319 0.319 c -1.082 0 -1.962 0.88 -1.962 1.962 C 57.039 8.571 56.897 8.713 56.721 8.713 z" style="stroke: none; stroke-width: 1; stroke-dasharray: none; stroke-linecap: butt; stroke-linejoin: miter; stroke-miterlimit: 10; fill: rgb(0,0,0); fill-rule: nonzero; opacity: 1;" transform=" matrix(1 0 0 1 0 0) " stroke-linecap="round" />
	<path d="M 80.725 7.469 c -0.176 0 -0.319 -0.143 -0.319 -0.319 c 0 -1.082 -0.88 -1.962 -1.962 -1.962 c -0.176 0 -0.319 -0.143 -0.319 -0.319 c 0 -0.176 0.143 -0.319 0.319 -0.319 c 1.082 0 1.962 -0.88 1.962 -1.962 c 0 -0.176 0.143 -0.319 0.319 -0.319 s 0.319 0.143 0.319 0.319 c 0 1.082 0.88 1.962 1.962 1.962 c 0.176 0 0.319 0.143 0.319 0.319 c 0 0.176 -0.143 0.319 -0.319 0.319 c -1.082 0 -1.962 0.88 -1.962 1.962 C 81.043 7.327 80.901 7.469 80.725 7.469 z" style="stroke: none; stroke-width: 1; stroke-dasharray: none; stroke-linecap: butt; stroke-linejoin: miter; stroke-miterlimit: 10; fill: rgb(0,0,0); fill-rule: nonzero; opacity: 1;" transform=" matrix(1 0 0 1 0 0) " stroke-linecap="round" />
</g>
</svg>